<svg xmlns="http://www.w3.org/2000/svg" xmlns:xlink="http://www.w3.org/1999/xlink" version="1.1" viewBox="0 0 100 100" width="100%" height="100%" xml:space="preserve"><path d="M19.3,34.632v-8.925c1.824,0.664,3.12,2.3,3.12,4.211c0,0.995,0.808,1.803,1.804,1.803c0.997,0,1.803-0.807,1.803-1.803  c0-3.896-2.886-7.158-6.727-7.95v-3.605c0-0.996-0.807-1.804-1.803-1.804c-0.995,0-1.803,0.808-1.803,1.804v3.605  c-3.841,0.792-6.729,4.054-6.729,7.95c0,3.895,2.888,7.156,6.729,7.948v8.923c-1.826-0.663-3.122-2.297-3.122-4.208  c0-0.996-0.807-1.804-1.804-1.804c-0.994,0-1.802,0.807-1.802,1.804c0,3.894,2.888,7.154,6.729,7.946v3.151  c0,0.995,0.808,1.802,1.803,1.802c0.996,0,1.802-0.807,1.802-1.802v-3.151c3.841-0.792,6.728-4.052,6.728-7.946  C26.027,38.687,23.141,35.424,19.3,34.632z M12.572,29.918c0-1.912,1.296-3.547,3.122-4.211v8.419  C13.867,33.464,12.572,31.83,12.572,29.918z M19.3,46.789v-8.418c1.824,0.663,3.12,2.299,3.12,4.211  C22.42,44.492,21.125,46.125,19.3,46.789z"></path><g><path d="M69.303,73.361c-3.565,0-4.508,2.358-4.508,3.605c0,0.499,0.404,0.902,0.901,0.902c3.565,0,4.509-2.359,4.509-3.606   C70.205,73.765,69.803,73.361,69.303,73.361z"></path><path d="M69.303,68.854c-3.565,0-4.508,2.357-4.508,3.605c0,0.499,0.404,0.902,0.901,0.902c3.565,0,4.509-2.359,4.509-3.606   C70.205,69.257,69.803,68.854,69.303,68.854z"></path><path d="M69.303,64.344c-3.565,0-4.508,2.358-4.508,3.606c0,0.5,0.404,0.903,0.901,0.903c3.565,0,4.509-2.359,4.509-3.608   C70.205,64.748,69.803,64.344,69.303,64.344z"></path><path d="M69.303,82.378c-3.565,0-4.508,2.357-4.508,3.605c0,0.499,0.404,0.902,0.901,0.902c3.565,0,4.509-2.358,4.509-3.607   C70.205,82.78,69.803,82.378,69.303,82.378z"></path><path d="M69.303,77.869c-3.565,0-4.508,2.358-4.508,3.607c0,0.497,0.404,0.901,0.901,0.901c3.565,0,4.509-2.358,4.509-3.607   C70.205,78.272,69.803,77.869,69.303,77.869z"></path><path d="M62.992,77.869c0.498,0,0.901-0.403,0.901-0.902c0-1.247-0.942-3.605-4.508-3.605c-0.499,0-0.9,0.403-0.9,0.901   C58.485,75.51,59.427,77.869,62.992,77.869z"></path><path d="M62.992,73.361c0.498,0,0.901-0.403,0.901-0.902c0-1.248-0.942-3.605-4.508-3.605c-0.499,0-0.9,0.403-0.9,0.901   C58.485,71.002,59.427,73.361,62.992,73.361z"></path><path d="M62.992,68.854c0.498,0,0.901-0.403,0.901-0.903c0-1.248-0.942-3.606-4.508-3.606c-0.499,0-0.9,0.403-0.9,0.901   C58.485,66.494,59.427,68.854,62.992,68.854z"></path><path d="M69.303,59.837c-3.565,0-4.508,2.358-4.508,3.606c0,0.499,0.404,0.902,0.901,0.902c3.565,0,4.509-2.359,4.509-3.607   C70.205,60.24,69.803,59.837,69.303,59.837z"></path><path d="M62.992,64.344c0.498,0,0.901-0.401,0.901-0.9c0-1.249-0.942-3.606-4.508-3.606c-0.499,0-0.9,0.402-0.9,0.901   C58.485,61.986,59.427,64.344,62.992,64.344z"></path><path d="M63.894,85.983c0-1.249-0.942-3.606-4.508-3.606c-0.499,0-0.9,0.402-0.9,0.901c0,1.248,0.941,3.607,4.508,3.607   C63.49,86.886,63.894,86.482,63.894,85.983z"></path><path d="M62.992,82.378c0.498,0,0.901-0.404,0.901-0.901c0-1.249-0.942-3.607-4.508-3.607c-0.499,0-0.9,0.403-0.9,0.901   C58.485,80.018,59.427,82.378,62.992,82.378z"></path><path d="M55.779,70.206c-4.012,0-4.058,3.123-4.058,3.155c0,0.249,0.202,0.45,0.45,0.45c4.012,0,4.057-3.124,4.057-3.155   C56.229,70.407,56.028,70.206,55.779,70.206z"></path><path d="M55.779,65.697c-4.012,0-4.058,3.124-4.058,3.156c0,0.248,0.202,0.45,0.45,0.45c4.012,0,4.057-3.125,4.057-3.156   C56.229,65.899,56.028,65.697,55.779,65.697z"></path><path d="M55.779,79.222c-4.012,0-4.058,3.125-4.058,3.156c0,0.248,0.202,0.45,0.45,0.45c4.012,0,4.057-3.124,4.057-3.156   C56.229,79.424,56.028,79.222,55.779,79.222z"></path><path d="M55.779,74.714c-4.012,0-4.058,3.124-4.058,3.155c0,0.249,0.202,0.45,0.45,0.45c4.012,0,4.057-3.123,4.057-3.155   C56.229,74.915,56.028,74.714,55.779,74.714z"></path><path d="M50.369,73.812c0.25,0,0.452-0.201,0.452-0.45c0-0.032-0.047-3.155-4.058-3.155c-0.248,0-0.45,0.201-0.45,0.45   C46.312,70.688,46.359,73.812,50.369,73.812z"></path><path d="M50.369,69.304c0.25,0,0.452-0.202,0.452-0.45c0-0.032-0.047-3.156-4.058-3.156c-0.248,0-0.45,0.202-0.45,0.45   C46.312,66.181,46.359,69.304,50.369,69.304z"></path><path d="M50.82,82.378c0-0.031-0.047-3.156-4.058-3.156c-0.248,0-0.45,0.202-0.45,0.45c0,0.032,0.048,3.156,4.057,3.156   C50.619,82.828,50.82,82.626,50.82,82.378z"></path><path d="M50.369,78.319c0.25,0,0.452-0.201,0.452-0.45c0-0.031-0.047-3.155-4.058-3.155c-0.248,0-0.45,0.201-0.45,0.45   C46.312,75.196,46.359,78.319,50.369,78.319z"></path><path d="M81.927,70.206c-4.012,0-4.057,3.123-4.057,3.155c0,0.249,0.2,0.45,0.45,0.45c4.01,0,4.058-3.124,4.058-3.155   C82.378,70.407,82.174,70.206,81.927,70.206z"></path><path d="M78.319,69.304c4.011,0,4.058-3.125,4.058-3.156c0-0.248-0.203-0.45-0.451-0.45c-4.012,0-4.057,3.124-4.057,3.156   C77.869,69.102,78.069,69.304,78.319,69.304z"></path><path d="M81.927,79.222c-4.012,0-4.057,3.125-4.057,3.156c0,0.248,0.2,0.45,0.45,0.45c4.01,0,4.058-3.124,4.058-3.156   C82.378,79.424,82.174,79.222,81.927,79.222z"></path><path d="M81.927,74.714c-4.012,0-4.057,3.124-4.057,3.155c0,0.249,0.2,0.45,0.45,0.45c4.01,0,4.058-3.123,4.058-3.155   C82.378,74.915,82.174,74.714,81.927,74.714z"></path><path d="M76.518,73.812c0.247,0,0.449-0.201,0.449-0.45c0-0.032-0.047-3.155-4.057-3.155c-0.25,0-0.45,0.201-0.45,0.45   C72.46,70.688,72.504,73.812,76.518,73.812z"></path><path d="M76.518,69.304c0.247,0,0.449-0.202,0.449-0.45c0-0.032-0.047-3.156-4.057-3.156c-0.25,0-0.45,0.202-0.45,0.45   C72.46,66.181,72.504,69.304,76.518,69.304z"></path><path d="M76.967,82.378c0-0.031-0.047-3.156-4.057-3.156c-0.25,0-0.45,0.202-0.45,0.45c0,0.032,0.046,3.156,4.058,3.156   C76.765,82.828,76.967,82.626,76.967,82.378z"></path><path d="M76.518,78.319c0.247,0,0.449-0.201,0.449-0.45c0-0.031-0.047-3.155-4.057-3.155c-0.25,0-0.45,0.201-0.45,0.45   C72.46,75.196,72.504,78.319,76.518,78.319z"></path><path d="M77.419,84.18c-0.499,0-0.901,0.404-0.901,0.902V94.1c0,0.499,0.402,0.901,0.901,0.901c0.498,0,0.9-0.402,0.9-0.901v-9.018   C78.319,84.584,77.916,84.18,77.419,84.18z"></path><path d="M51.271,84.18c-0.499,0-0.902,0.404-0.902,0.902V94.1c0,0.499,0.403,0.901,0.902,0.901s0.901-0.402,0.901-0.901v-9.018   C52.172,84.584,51.77,84.18,51.271,84.18z"></path><path d="M64.345,87.787c-0.747,0-1.353,0.605-1.353,1.353c0,0.158,0,0.45,0,0.45v3.606c0,0,0,0.291,0,0.451   c0,0.746,0.605,1.353,1.353,1.353s1.352-0.606,1.352-1.353c0-0.16,0-0.451,0-0.451V89.59c0,0,0-0.292,0-0.45   C65.697,88.393,65.092,87.787,64.345,87.787z"></path><path d="M77.217,66.552c0.062,0.031,0.133,0.047,0.202,0.047c0.068,0,0.137-0.016,0.2-0.047c0.036-0.018,0.877-0.448,1.161-1.516   c0.273-1.028-0.059-2.255-0.986-3.646c-0.168-0.25-0.583-0.25-0.749,0c-0.929,1.392-1.26,2.618-0.986,3.646   C76.341,66.104,77.182,66.534,77.217,66.552z"></path><path d="M51.171,66.552c0.062,0.031,0.131,0.047,0.2,0.047s0.14-0.016,0.203-0.047c0.035-0.018,0.875-0.448,1.158-1.516   c0.272-1.028-0.057-2.255-0.986-3.646c-0.167-0.25-0.581-0.25-0.749,0c-0.926,1.392-1.259,2.618-0.986,3.646   C50.293,66.104,51.135,66.534,51.171,66.552z"></path><path d="M63.929,60.644c0.128,0.063,0.264,0.095,0.403,0.095c0.138,0,0.276-0.031,0.402-0.095c0.109-0.055,1.064-0.563,1.395-1.803   c0.308-1.159-0.044-2.509-1.046-4.012c-0.335-0.503-1.166-0.503-1.501,0c-1.002,1.503-1.354,2.853-1.046,4.012   C62.864,60.08,63.819,60.591,63.929,60.644z"></path></g><path d="M77.887,11.608c-1.729,0-3.047,2.821-3.047,4.232c0,1.546,1.215,3.882,3.047,3.882c1.833,0,3.048-2.337,3.048-3.882  C80.935,14.41,79.555,11.608,77.887,11.608z M79.818,14.81c0.029,0.099,0.72,2.442-1.028,3.674c-0.08,0.056-0.17,0.083-0.261,0.083  c-0.141,0-0.281-0.067-0.369-0.191c-0.144-0.204-0.094-0.485,0.109-0.628c1.213-0.854,0.707-2.601,0.684-2.675  c-0.071-0.238,0.063-0.49,0.301-0.561C79.49,14.44,79.744,14.572,79.818,14.81z"></path><path d="M85.185,20.433c-1.479,0-2.606,2.412-2.606,3.619c0,1.322,1.039,3.32,2.606,3.32c1.566,0,2.606-1.999,2.606-3.32  C87.79,22.83,86.61,20.433,85.185,20.433z M85.995,26.366c-0.079,0.057-0.17,0.083-0.26,0.083c-0.141,0-0.281-0.067-0.368-0.191  c-0.144-0.204-0.095-0.485,0.107-0.627c1.006-0.71,0.566-2.199,0.561-2.214c-0.071-0.238,0.061-0.491,0.299-0.563  c0.242-0.072,0.491,0.062,0.564,0.3C86.924,23.24,87.528,25.286,85.995,26.366z"></path><path d="M69.211,15.666c-1.479,0-2.605,2.412-2.605,3.619c0,1.323,1.037,3.321,2.605,3.321c1.567,0,2.605-1.999,2.605-3.321  C71.816,18.062,70.638,15.666,69.211,15.666z M70.924,18.385c0.025,0.087,0.629,2.133-0.903,3.213  c-0.079,0.056-0.17,0.083-0.261,0.083c-0.14,0-0.281-0.067-0.367-0.192c-0.145-0.203-0.096-0.484,0.107-0.627  c1.006-0.709,0.564-2.198,0.559-2.213c-0.071-0.24,0.062-0.491,0.301-0.564C70.603,18.014,70.85,18.147,70.924,18.385z"></path><g><path d="M42.127,78.842c-7.276-1.955-13.6-6.328-18.021-12.308l4.007-2.727c0.285-0.193,0.435-0.533,0.385-0.873   c-0.049-0.341-0.287-0.623-0.614-0.73l-9.603-3.114c-0.261-0.086-0.545-0.046-0.775,0.105s-0.376,0.398-0.401,0.671l-0.915,10.271   c-0.03,0.348,0.14,0.682,0.441,0.858c0.141,0.082,0.3,0.124,0.456,0.124c0.178,0,0.356-0.052,0.507-0.156l3.527-2.399   c4.906,6.688,11.958,11.581,20.071,13.76c0.157,0.043,0.313,0.062,0.468,0.062c0.796,0,1.524-0.53,1.74-1.336   C43.66,80.09,43.089,79.101,42.127,78.842z"></path><path d="M59.796,5.474c-0.166-0.306-0.48-0.493-0.841-0.471c-0.348,0.019-0.654,0.237-0.786,0.56l-1.826,4.456   c-1.847-0.282-3.721-0.426-5.599-0.426c-7.438,0-14.603,2.211-20.714,6.394c-0.57,0.39-1.126,0.793-1.673,1.214   c-0.791,0.606-0.938,1.738-0.333,2.528c0.356,0.463,0.891,0.705,1.432,0.705c0.385,0,0.77-0.122,1.097-0.374   c0.493-0.377,0.995-0.742,1.513-1.095c5.511-3.772,11.969-5.766,18.678-5.766c1.402,0,2.8,0.099,4.184,0.274l-1.583,3.863   c-0.131,0.319-0.067,0.683,0.162,0.94c0.173,0.195,0.419,0.303,0.673,0.303c0.081,0,0.163-0.011,0.242-0.033l9.73-2.702   c0.264-0.074,0.48-0.264,0.588-0.516c0.107-0.253,0.093-0.541-0.037-0.782L59.796,5.474z"></path><path d="M91.484,54.528l-4.528-1.459c0.351-2.046,0.529-4.126,0.529-6.231c0-5.702-1.269-11.163-3.773-16.237   c-0.439-0.892-1.521-1.259-2.415-0.818c-0.894,0.44-1.259,1.522-0.817,2.416c2.255,4.57,3.4,9.496,3.4,14.64   c0,1.724-0.139,3.43-0.4,5.111l-4.104-1.324c-0.327-0.103-0.688-0.015-0.926,0.233c-0.237,0.248-0.315,0.61-0.199,0.934   l3.444,9.491c0.096,0.259,0.301,0.46,0.561,0.546c0.095,0.031,0.191,0.048,0.288,0.048c0.17,0,0.341-0.048,0.488-0.143l8.664-5.589   c0.296-0.19,0.452-0.53,0.406-0.877C92.057,54.924,91.815,54.636,91.484,54.528z"></path></g></svg>