<?xml version="1.0" standalone="no"?>
<!DOCTYPE svg PUBLIC "-//W3C//DTD SVG 20010904//EN"
 "http://www.w3.org/TR/2001/REC-SVG-20010904/DTD/svg10.dtd">
<svg version="1.0" xmlns="http://www.w3.org/2000/svg"
 width="298.000000pt" height="258.000000pt" viewBox="0 0 298.000000 258.000000"
 preserveAspectRatio="xMidYMid meet">
<metadata>
Created by potrace 1.12, written by Peter Selinger 2001-2015
</metadata>
<g transform="translate(0.000000,258.000000) scale(0.100000,-0.100000)"
fill="#000000" stroke="none">
<path d="M1343 2560 c-185 -49 -317 -166 -364 -324 -12 -39 -23 -72 -23 -73
-1 -1 -54 18 -117 43 -63 25 -166 59 -229 76 -103 28 -130 32 -261 32 l-146 1
-69 -35 c-55 -28 -74 -45 -99 -84 -26 -44 -30 -58 -30 -125 0 -65 5 -86 33
-145 84 -177 258 -355 522 -531 63 -42 116 -80 117 -83 2 -4 -30 -24 -70 -44
-195 -100 -351 -240 -383 -342 -15 -46 -15 -62 -5 -95 24 -81 122 -144 276
-177 61 -14 130 -18 288 -18 l208 -1 31 -57 c44 -82 125 -177 190 -221 49 -34
65 -56 149 -197 52 -88 99 -160 105 -160 7 0 70 74 142 165 71 90 152 182 179
203 69 55 138 137 175 207 l31 60 206 1 c229 0 319 14 426 63 174 80 189 203
44 356 -74 77 -176 151 -296 213 -40 20 -72 40 -70 44 1 3 54 41 117 83 264
176 438 354 522 531 28 59 33 80 33 145 0 67 -4 81 -30 125 -25 39 -44 56 -99
84 l-69 35 -141 0 c-122 0 -156 -4 -251 -29 -87 -22 -232 -73 -351 -122 -6 -3
-18 23 -29 61 -69 257 -373 411 -662 335z m-151 -280 c50 -39 59 -151 17 -219
l-20 -32 -37 22 c-53 32 -62 46 -62 105 0 61 11 95 40 124 25 25 31 25 62 0z
m658 0 c29 -29 40 -63 40 -124 0 -58 -9 -73 -62 -105 l-37 -22 -16 25 c-45 68
-38 187 12 226 32 25 38 25 63 0z m-1115 -214 c50 -13 126 -39 169 -58 72 -30
82 -38 109 -83 16 -28 44 -66 64 -86 l35 -37 -37 -48 c-48 -62 -101 -169 -135
-268 -25 -75 -28 -80 -66 -94 l-40 -15 -94 59 c-235 145 -396 285 -454 394
-65 120 -22 219 111 256 69 20 226 11 338 -20z m1880 10 c86 -36 126 -108 105
-185 -34 -126 -196 -280 -480 -455 l-94 -59 -39 15 c-37 13 -40 18 -66 98 -32
98 -74 184 -125 255 -20 27 -36 54 -36 59 0 6 13 24 29 41 16 16 42 52 58 80
27 45 37 53 109 83 81 34 192 68 273 83 71 12 220 4 266 -15z m-999 -355 c54
-25 164 -120 164 -141 0 -4 -27 3 -60 17 -89 35 -211 49 -315 35 -46 -6 -112
-22 -145 -35 -33 -14 -60 -21 -60 -16 0 4 23 31 52 60 109 109 241 138 364 80z
m60 -347 c36 -9 102 -35 147 -58 90 -46 101 -63 95 -156 l-3 -48 -74 44 c-217
127 -470 130 -687 9 -35 -20 -66 -40 -69 -45 -15 -24 -25 -6 -25 44 0 79 12
101 72 136 164 94 358 120 544 74z m-783 -121 c-2 -38 -6 -79 -8 -93 -7 -50
16 -247 40 -339 14 -52 23 -96 20 -99 -11 -11 -263 18 -326 38 -231 71 -237
224 -16 393 60 46 266 165 288 167 4 0 5 -30 2 -67z m1305 11 c270 -140 393
-295 319 -405 -30 -45 -77 -75 -155 -99 -66 -21 -290 -47 -315 -37 -12 4 -10
20 9 94 25 93 45 286 38 366 -10 119 -11 137 -8 137 3 0 53 -25 112 -56z
m-493 -312 c69 -19 172 -58 189 -73 12 -10 -22 -119 -37 -119 -7 0 -17 4 -23
9 -17 16 -128 53 -202 67 -98 19 -249 18 -325 -2 -33 -8 -90 -29 -125 -45 -36
-16 -66 -29 -68 -29 -8 0 -35 110 -29 119 10 17 162 71 242 86 100 19 281 12
378 -13z m-17 -372 c28 -8 52 -18 52 -25 0 -19 -99 -88 -154 -107 -99 -34
-201 -15 -295 57 -28 22 -51 45 -51 51 0 7 23 17 53 23 28 5 61 12 72 15 37 9
270 -1 323 -14z"/>
</g>
</svg>
