<svg xmlns="http://www.w3.org/2000/svg" xmlns:xlink="http://www.w3.org/1999/xlink" version="1.1" width="100%" height="100%" viewBox="0 0 100 100" xml:space="preserve"><path d="M90,25.642l-12,6.644l-12-6.644V11.171l12-6.644L85,8v1h-3v2l-4-1.9l-8,4.429v9.756l8,4.429l8-4.429V19h4"/><path d="M43.5,92.611c-10.941,0-19.5-8.853-19.5-19.734V45.872c0-10.88,8.559-19.733,19.5-19.733c10.941,0,19.5,8.854,19.5,19.733  v27.005C63,83.759,54.441,92.611,43.5,92.611z M43.5,31.1c-8.206,0-13.5,6.626-13.5,14.772v27.005c0,8.146,5.294,14.773,13.5,14.773  c8.207,0,13.5-6.627,13.5-14.773V45.872C57,37.727,51.707,31.1,43.5,31.1z"/><path d="M74.433,60.863c3.968,0,9.922,4.887,9.922,10.913c0,6.027-4.885,10.914-10.914,10.914c-6.027,0-10.913-4.887-10.913-10.914"/><polygon points="77.684,66.604 58.834,41.786 61.69,39.065 82.369,65.825 "/><path d="M61.536,46.973c0-9.863-7.997-17.857-17.859-17.857c-9.864,0-17.858,7.995-17.858,17.857"/><rect x="29" y="51" width="32" height="6"/><rect x="29" y="60" width="32" height="6"/><rect x="29" y="69" width="32" height="6"/><path d="M12.921,60.863C8.952,60.863,3,65.75,3,71.776C3,77.804,7.885,82.69,13.914,82.69s10.913-4.887,10.913-10.914"/><polygon points="9.749,66.138 4.984,65.825 25.664,39.065 28.599,41.319 "/><g><polyline points="38.716,90.131 43.677,96.085 48.638,90.131  "/><polygon points="43.677,96.858 38.335,90.449 39.098,89.813 43.677,95.308 48.256,89.813 49.02,90.449  "/></g><rect x="30.618" y="23.659" transform="matrix(0.3162 0.9487 -0.9487 0.3162 47.8785 -14.1505)" width="6.275" height="4.96"/><rect x="51.117" y="23.002" transform="matrix(0.9486 0.3163 -0.3163 0.9486 11.0214 -15.613)" width="4.961" height="6.273"/><polygon points="90,8 90,11 93,11 93,14 90,14 90,17 87,17 87,14 84,14 84,11 87,11 87,8 "/></svg>