<svg xmlns="http://www.w3.org/2000/svg" xmlns:xlink="http://www.w3.org/1999/xlink" version="1.1" x="0px" y="0px" viewBox="0 0 100 100" enable-background="new 0 0 100 100" xml:space="preserve"><g><path fill="#000000" d="M29.515,89.811c-0.403,0-0.815-0.098-1.196-0.307c-3.875-2.117-7.412-4.793-10.516-7.947   c-0.969-0.986-0.957-2.57,0.027-3.535c0.983-0.971,2.565-0.957,3.535,0.027c2.761,2.807,5.908,5.186,9.353,7.068   c1.211,0.664,1.655,2.182,0.994,3.393C31.258,89.34,30.399,89.811,29.515,89.811z"></path><path fill="#000000" d="M12.242,72.246c-0.898,0-1.768-0.486-2.217-1.338c-2.058-3.916-3.521-8.104-4.348-12.451   c-0.259-1.355,0.632-2.664,1.989-2.924c1.351-0.258,2.664,0.633,2.923,1.99c0.732,3.857,2.031,7.578,3.862,11.061   c0.642,1.223,0.173,2.734-1.05,3.373C13.031,72.152,12.632,72.246,12.242,72.246z"></path><path fill="#000000" d="M91.57,60.834c-0.161,0-0.325-0.014-0.491-0.049c-1.353-0.268-2.233-1.584-1.963-2.939   c0.511-2.566,0.77-5.205,0.77-7.846c0-1.293-0.063-2.592-0.186-3.865c-0.132-1.375,0.876-2.596,2.251-2.727   c1.377-0.131,2.595,0.875,2.727,2.248c0.137,1.434,0.208,2.893,0.208,4.344c0,2.969-0.291,5.938-0.864,8.822   C93.784,60.012,92.739,60.834,91.57,60.834z"></path><path fill="#000000" d="M7.618,48.051c-0.088,0-0.173-0.004-0.261-0.014c-1.375-0.143-2.371-1.373-2.229-2.744   c0.459-4.408,1.562-8.705,3.279-12.773c0.537-1.273,2.004-1.869,3.276-1.332c1.271,0.535,1.867,2.002,1.33,3.275   c-1.525,3.615-2.505,7.432-2.912,11.348C9.966,47.094,8.88,48.051,7.618,48.051z"></path><path fill="#000000" d="M89.194,36.311c-0.983,0-1.916-0.582-2.314-1.545c-1.494-3.627-3.516-7.01-6.011-10.064   c-0.874-1.066-0.715-2.645,0.354-3.516c1.066-0.871,2.644-0.715,3.516,0.352c2.805,3.434,5.08,7.242,6.763,11.32   c0.527,1.277-0.078,2.738-1.357,3.266C89.834,36.25,89.512,36.311,89.194,36.311z"></path><path fill="#000000" d="M17.181,25.354c-0.564,0-1.131-0.191-1.597-0.578c-1.062-0.883-1.206-2.459-0.325-3.521   c2.827-3.4,6.131-6.361,9.814-8.801c1.15-0.764,2.703-0.449,3.465,0.703c0.759,1.15,0.444,2.703-0.706,3.465   c-3.276,2.17-6.211,4.805-8.726,7.828C18.612,25.045,17.899,25.354,17.181,25.354z"></path><path fill="#000000" d="M73.602,17.229c-0.481,0-0.967-0.137-1.395-0.428c-3.267-2.199-6.823-3.898-10.573-5.049   c-1.318-0.404-2.061-1.805-1.655-3.125c0.405-1.318,1.804-2.059,3.122-1.654C67.322,8.268,71.326,10.18,75,12.656   c1.146,0.771,1.448,2.324,0.677,3.469C75.195,16.842,74.404,17.229,73.602,17.229z"></path><path fill="#000000" d="M37.733,11.762c-1.077,0-2.073-0.701-2.396-1.787c-0.393-1.322,0.359-2.715,1.683-3.107   C41.177,5.627,45.506,5,49.886,5h0.173c1.379,0,2.5,1.119,2.5,2.5s-1.12,2.5-2.5,2.5h-0.2c-3.867,0-7.717,0.557-11.411,1.66   C38.208,11.73,37.969,11.762,37.733,11.762z"></path><path fill="#000000" d="M48.636,95c-2.21,0-4.429-0.162-6.597-0.482c-1.367-0.199-2.31-1.471-2.112-2.836   c0.2-1.367,1.473-2.316,2.84-2.109c1.11,0.164,2.238,0.281,3.369,0.346V83.75c0-1.381,1.118-2.5,2.5-2.5c1.379,0,2.5,1.119,2.5,2.5   v8.75C51.136,93.879,50.015,95,48.636,95z"></path><path fill="#000000" d="M91.982,80.512l-5.783-3.947c1.242-1.695,2.373-3.469,3.369-5.328c0.649-1.215,0.195-2.73-1.023-3.383   c-1.216-0.652-2.731-0.195-3.384,1.02c-0.91,1.699-1.945,3.326-3.091,4.873l-5.231-3.568c-0.394-0.27-0.906-0.289-1.321-0.057   c-0.412,0.234-0.656,0.682-0.635,1.154l0.811,15.039c0.022,0.391,0.223,0.746,0.542,0.965c0.215,0.145,0.459,0.221,0.708,0.221   c0.132,0,0.264-0.023,0.391-0.062l14.334-4.707c0.454-0.148,0.781-0.541,0.85-1.012C92.583,81.25,92.376,80.781,91.982,80.512z"></path><path fill="#000000" d="M74.886,30C49.595,30,47.51,46.178,47.393,55.244c-2.329-6.576-8.815-12.367-26.257-11.494   c0,0,0,21.25,21.25,21.25c0,0,1.325-6.875-8.022-13.75c0,0,11.772,2.5,11.772,16.25v1.25v3.75c0,1.379,1.118,2.5,2.5,2.5   c1.379,0,2.5-1.121,2.5-2.5v-3.75v-2.5V60c0-17.5,12.5-21.25,12.5-21.25c-8.75,8.75-8.75,17.5-8.75,17.5   C76.136,56.25,74.886,30,74.886,30z"></path></g></svg>